<svg id="Capa_2" data-name="Capa 2" xmlns="http://www.w3.org/2000/svg" viewBox="0 0 464.29 464.29"><defs><style>.cls-1{fill:#333;} @media (prefers-color-scheme: dark){.cls-1{fill:#FFF}}</style></defs><path class="cls-1" d="M240.54,7.86C112.34,7.86,8.4,111.79,8.4,240S112.34,472.14,240.54,472.14,472.69,368.21,472.69,240,368.75,7.86,240.54,7.86ZM400.05,193a7,7,0,0,0-2.22-4.67,6.8,6.8,0,0,0-4.85-1.93h-9.89a13.32,13.32,0,0,1-5.13-1,13.11,13.11,0,0,1-4.24-2.78,13.58,13.58,0,0,1-2.92-4.14,11.83,11.83,0,0,1-1.09-5,13.57,13.57,0,0,1,1-5.23,13.27,13.27,0,0,1,2.78-4.24,13,13,0,0,1,4.24-2.87,13.17,13.17,0,0,1,5.18-1h19.41a3.07,3.07,0,0,1,2.21.85,2.84,2.84,0,0,1,.9,2.17,3.06,3.06,0,0,1-3.11,3.1H383.09a7.08,7.08,0,0,0-5.27,2.22,6.56,6.56,0,0,0-2,5.23,6.88,6.88,0,0,0,2.21,4.66,6.77,6.77,0,0,0,4.85,1.93H393a13.17,13.17,0,0,1,5.18,1,12.72,12.72,0,0,1,4.24,2.87,13.06,13.06,0,0,1,2.78,4.29,13.68,13.68,0,0,1,1,5.18,12,12,0,0,1-1.08,5.08,14,14,0,0,1-2.92,4.15,13.29,13.29,0,0,1-9.38,3.77h-20a3.07,3.07,0,0,1-3.11-3.11,2.86,2.86,0,0,1,.9-2.17,3.11,3.11,0,0,1,2.21-.85h20a7.09,7.09,0,0,0,5.28-2.21A6.75,6.75,0,0,0,400.05,193ZM319,174.05a23.1,23.1,0,0,1,5-7.39,23.9,23.9,0,0,1,7.44-5,23.59,23.59,0,0,1,17.8-.19,23.9,23.9,0,0,1,12.39,11.3,22.15,22.15,0,0,1,2.4,8.43v.1a4.28,4.28,0,0,1-1.32,3.58,4.58,4.58,0,0,1-3.58,1.6h-30a3.11,3.11,0,0,1-2.27-1,3.62,3.62,0,0,1-.84-2.35,3,3,0,0,1,1-2.12,3.19,3.19,0,0,1,2.21-.8h28.35a16.35,16.35,0,0,0-2.16-5.89,17.46,17.46,0,0,0-4-4.47,17.21,17.21,0,0,0-5.27-2.88,19.24,19.24,0,0,0-6.13-1,16.09,16.09,0,0,0-6.36,1.46,17.87,17.87,0,0,0-8.85,8.85,17.5,17.5,0,0,0-1.56,6.36,17.38,17.38,0,0,0,4.9,12.62,16.61,16.61,0,0,0,12.44,5.28,17.13,17.13,0,0,0,9.23-2.64,16.88,16.88,0,0,0,6.41-7.16,2.79,2.79,0,0,1,2.82-1.79,2.87,2.87,0,0,1,2.64,1.41,2.94,2.94,0,0,1,.19,3,22.84,22.84,0,0,1-8.72,9.84,23.22,23.22,0,0,1-12.57,3.63h-.29a22.57,22.57,0,0,1-9-2,24.57,24.57,0,0,1-7.44-5.18,24,24,0,0,1-5-7.53,21.86,21.86,0,0,1-1.74-9.09A23.56,23.56,0,0,1,319,174.05ZM250.56,133a3.15,3.15,0,0,1,.89-2.26,2.92,2.92,0,0,1,2.21-.94,3.23,3.23,0,0,1,3.21,3.2v70.84a2.91,2.91,0,0,1-1,2.21,3.14,3.14,0,0,1-2.26.9,3.06,3.06,0,0,1-3.1-3.11ZM133.38,333.82l-14.29-29.45-8.63,4.24-8.32-7.9,8.32,4.47,6.17-5.88-9.21-19a.81.81,0,0,0-1.47.06L74.42,362.88a7.45,7.45,0,0,1-5.53,4.57,5.88,5.88,0,0,1-3.57-.44l-8.55-3.76a2.38,2.38,0,0,1,.25-4.76l9.54-1.15a2.13,2.13,0,0,0,2-1.34l37-94.17a.68.68,0,0,1,1.32,0l28,71.4A.81.81,0,0,1,133.38,333.82Zm55.92,14.77a27.16,27.16,0,0,1-2.78,10A27.82,27.82,0,0,1,172,372.08,26.84,26.84,0,0,1,161.74,374a27.27,27.27,0,0,1-10.11-1.89,28.17,28.17,0,0,1-8.49-5.22,27,27,0,0,1-6.06-7.89,27.71,27.71,0,0,1-2.89-9.89,3.16,3.16,0,0,1,1-2.78,3.3,3.3,0,0,1,2.67-1.22,3.41,3.41,0,0,1,2.44.95,3.92,3.92,0,0,1,1.22,2.38,20.8,20.8,0,0,0,2.17,7.23,20,20,0,0,0,4.45,5.77,20.54,20.54,0,0,0,6.22,3.84,19.91,19.91,0,0,0,7.38,1.38,19.27,19.27,0,0,0,7.89-1.61,20.32,20.32,0,0,0,10.72-10.77,19.73,19.73,0,0,0,1.62-7.95V311.14a19.68,19.68,0,0,0-1.62-7.94,20.33,20.33,0,0,0-4.33-6.44,20.65,20.65,0,0,0-6.39-4.34A20.31,20.31,0,0,0,147.08,297a19.78,19.78,0,0,0-5.67,14.89,20.57,20.57,0,0,0,1.89,7.67,21.17,21.17,0,0,0,4.39,6.22,19.9,19.9,0,0,0,14.05,5.67,20.33,20.33,0,0,0,12.11-4,3.12,3.12,0,0,1,2.12-.78,3.39,3.39,0,0,1,2.77,1.22,3.28,3.28,0,0,1,.89,2.78,3.69,3.69,0,0,1-1.44,2.66A27.56,27.56,0,0,1,151,336.64a28.17,28.17,0,0,1-8.83-5.89,27.7,27.7,0,0,1-5.94-30.33,28.17,28.17,0,0,1,5.89-8.83,27.56,27.56,0,0,1,39.1,0,28.34,28.34,0,0,1,5.89,8.83,26.85,26.85,0,0,1,2.17,10.72Zm60.55-35.67a5.38,5.38,0,0,1-4.22,1.89H210.18a3.63,3.63,0,0,1-2.66-1.11,4.26,4.26,0,0,1-1-2.78,3.51,3.51,0,0,1,1.17-2.5,3.75,3.75,0,0,1,2.61-.94h33.44a19.41,19.41,0,0,0-2.56-7,20.38,20.38,0,0,0-10.89-8.66,22.25,22.25,0,0,0-7.22-1.17,19.23,19.23,0,0,0-7.5,1.72,21.13,21.13,0,0,0-10.44,10.45,19.5,19.5,0,0,0-.44,15.55,20.58,20.58,0,0,0,4.38,6.83,19.6,19.6,0,0,0,14.67,6.23,20.21,20.21,0,0,0,10.89-3.12,19.77,19.77,0,0,0,7.55-8.44,3.3,3.3,0,0,1,3.34-2.11,3.39,3.39,0,0,1,3.11,1.67,3.42,3.42,0,0,1,.22,3.55,26.9,26.9,0,0,1-10.28,11.61,27.43,27.43,0,0,1-14.83,4.28h-.33a26.62,26.62,0,0,1-10.67-2.39,29.22,29.22,0,0,1-8.78-6.11,28.52,28.52,0,0,1-5.94-8.89A25.59,25.59,0,0,1,196,310.81a28.17,28.17,0,0,1,2.28-10.67,27.62,27.62,0,0,1,5.95-8.72,28.59,28.59,0,0,1,8.77-5.89,27.94,27.94,0,0,1,21-.22,28.29,28.29,0,0,1,14.61,13.33,26.07,26.07,0,0,1,2.83,9.95v.11A5.06,5.06,0,0,1,249.85,312.92ZM238,235.77,195,166l-22.84,6.15-17.43-18.28-19.92,5-9.47-8.78,9.62,5.21L155,142.14l15.43,13.15L183,146.54l-24.51-39.79c-.61-1-2.95-1.06-3.7-.09L89.36,190.33c-1.08,1.43-4.72.55-3.79-.92l15.87-25.08A2.82,2.82,0,0,1,98.5,163l-11-17.17a.92.92,0,0,0-1.6.08l-5.26,10.36,3,5.38,4.39-3.85,4.29,7.71-4.29-2.14L84.86,170l-7.75-6.74L58.28,200.42a2,2,0,0,1-3.58-1.67l31-72.84a1.07,1.07,0,0,1,2,0l6.09,13,16.7-39.24a.92.92,0,0,1,1.67,0L123.48,124a.94.94,0,0,1-1.59,1L112,112.43a.55.55,0,0,0-.92.06l-3.79,6.64,2.23,5.44,5.36-2.15-7.29,7.08-3.37-5-9.45,16.56,8.91,19.09a2.35,2.35,0,0,1,.15.42L156.2,77.75a2.38,2.38,0,0,1,3.34,0L252.7,225c.79,1.25,2.82,2.08,5.08,2.08h6.81V183.38a22.76,22.76,0,0,1,1.84-9.09,23.22,23.22,0,0,1,12.43-12.44,23.84,23.84,0,0,1,18.32,0,23.87,23.87,0,0,1,7.44,5,23.21,23.21,0,0,1,5,7.49,23.67,23.67,0,0,1,1.79,9.19,22.59,22.59,0,0,1-1.84,9,23.31,23.31,0,0,1-5,7.39,24.1,24.1,0,0,1-7.49,5,23.42,23.42,0,0,1-23-2.78,3.15,3.15,0,0,1-1.23-2.17,3.22,3.22,0,0,1,3.11-3.48,3.15,3.15,0,0,1,1.79.66A16.69,16.69,0,0,0,288,200.62a17.06,17.06,0,0,0,6.55-1.27,17.76,17.76,0,0,0,5.41-3.49,16.91,16.91,0,0,0,3.77-5.23,16.14,16.14,0,0,0,1.51-6.5,17.17,17.17,0,0,0-23.88-16.53,17.37,17.37,0,0,0-5.46,3.67,17.62,17.62,0,0,0-3.68,5.42,16.43,16.43,0,0,0-1.36,6.69V227.1H396.92c8,0,8.59,7,.64,7.45L270.81,242.3v11.11a3.06,3.06,0,0,1-3.11,3.11,3,3,0,0,1-3.11-3.11V242.68l-6.83.42C249.1,243.63,240.94,240.61,238,235.77Zm75.32,99.48a3.55,3.55,0,0,1-1.06,2.61,3.67,3.67,0,0,1-6.28-2.61V311.92a18.71,18.71,0,0,0-1.27-7.94,20.65,20.65,0,0,0-4.39-6.84,19.52,19.52,0,0,0-6.67-4.55,20.48,20.48,0,0,0-7.89-1.56,19.68,19.68,0,0,0-7.94,1.62,20.33,20.33,0,0,0-6.44,4.33,20.65,20.65,0,0,0-4.34,6.39,19.42,19.42,0,0,0-1.61,7.88v24a3.67,3.67,0,1,1-7.33,0v-48a3.67,3.67,0,1,1,7.33,0v5.33a6.84,6.84,0,0,1,.78-.89,26.9,26.9,0,0,1,8.89-5.94,27.77,27.77,0,0,1,10.66-2.06,26.69,26.69,0,0,1,10.45,2.06,28,28,0,0,1,14.61,13.94,26.38,26.38,0,0,1,2.5,10.33Zm59.1-11.11A27.85,27.85,0,0,1,336.9,336.7,27.7,27.7,0,0,1,322,321.64,26.61,26.61,0,0,1,320,310.7,27.3,27.3,0,0,1,322.28,300a28,28,0,0,1,14.84-14.61,27,27,0,0,1,10.72-2.16,27.52,27.52,0,0,1,14.33,3.89A26.83,26.83,0,0,1,372.39,298a3.81,3.81,0,0,1-.11,3.67,3.56,3.56,0,0,1-3.22,1.78,3.51,3.51,0,0,1-3.22-2,20.17,20.17,0,0,0-25.95-9.22,21.77,21.77,0,0,0-6.38,4.16,19.13,19.13,0,0,0-4.39,6.17,21.49,21.49,0,0,0-.45,15.78,20.52,20.52,0,0,0,4.39,6.88,19.73,19.73,0,0,0,14.78,6.23,20.33,20.33,0,0,0,18-10.78,3.49,3.49,0,0,1,3.22-2,3.56,3.56,0,0,1,3.22,1.78A3.43,3.43,0,0,1,372.39,324.14Zm62.22,24.33a25.58,25.58,0,0,1-2.67,10,27.23,27.23,0,0,1-6.05,8.06,29.43,29.43,0,0,1-8.56,5.39,26.37,26.37,0,0,1-10.16,2A27.19,27.19,0,0,1,397.06,372a27.5,27.5,0,0,1-8.45-5.22A27.78,27.78,0,0,1,379.72,349a3.62,3.62,0,0,1,3.56-4,3.64,3.64,0,0,1,2.5.94,3.49,3.49,0,0,1,1.17,2.39,20.53,20.53,0,0,0,2.16,7.22,19.94,19.94,0,0,0,4.45,5.78,20.54,20.54,0,0,0,6.22,3.84,19.93,19.93,0,0,0,7.39,1.38,19.25,19.25,0,0,0,7.88-1.61,20.38,20.38,0,0,0,10.73-10.77,19.89,19.89,0,0,0,1.61-7.95V329.81a27.43,27.43,0,0,1-9.17,6.55,27.43,27.43,0,0,1-21.78.17,28.34,28.34,0,0,1-8.83-5.89,27.44,27.44,0,0,1-8.11-19.5v-24a3.67,3.67,0,1,1,7.33,0v24a19.61,19.61,0,0,0,1.61,7.84,20.24,20.24,0,0,0,10.78,10.77,19.69,19.69,0,0,0,7.95,1.61,19.25,19.25,0,0,0,7.88-1.61A20.38,20.38,0,0,0,425.78,319a19.61,19.61,0,0,0,1.61-7.84v-24a3.59,3.59,0,0,1,3.66-3.67,3.6,3.6,0,0,1,3.67,3.67v61.32Z" transform="translate(-8.4 -7.86)"/></svg>