<svg viewBox="0 0 175.43 175.43"><g id="Capa_2" data-name="Capa 2"><g id="Capa_2-2" data-name="Capa 2"><path d="M87.72,0a87.72,87.72,0,1,0,87.71,87.72A87.72,87.72,0,0,0,87.72,0Zm0,168.72a81,81,0,1,1,81-81A81,81,0,0,1,87.72,168.72Z" style="fill:var(--text)"/><path d="M87.72,11.24a76.49,76.49,0,0,0-66.1,115L54.23,56.85a4.06,4.06,0,0,1,7.38.07l.73,1.64L72.5,34a4.06,4.06,0,0,1,7.4-.24l8.19,16.66a4,4,0,1,1-7.27,3.49l-3.95-8.42a.38.38,0,0,0-.69,0L66.44,67.68l10.1,21.66,25.81-67.91a3.43,3.43,0,0,1,6.38-.08l43.79,107A76.47,76.47,0,0,0,87.72,11.24Z" style="fill:var(--text)"/><path d="M105.38,35,70.22,128A4,4,0,0,1,65,130.33h0a4,4,0,0,1-2.26-5.22L72.79,99.45,58.61,69.94a.62.62,0,0,0-1.11,0L26.67,133.79a76.47,76.47,0,0,0,120.85,1.57L106.4,35A.55.55,0,0,0,105.38,35Z" style="fill:var(--text)"/></g></g></svg>