<svg viewBox="0 0 464.29 464.29"><g id="Capa_2" data-name="Capa 2"><g id="Capa_2-2" data-name="Capa 2"><path d="M232.14,0C103.93,0,0,103.93,0,232.14S103.93,464.29,232.14,464.29,464.29,360.35,464.29,232.14,360.35,0,232.14,0ZM391.65,185.13a6.91,6.91,0,0,0-2.22-4.66,6.77,6.77,0,0,0-4.85-1.93h-9.89a13.32,13.32,0,0,1-5.13-1,13.16,13.16,0,0,1-4.24-2.78,13.62,13.62,0,0,1-2.92-4.15,11.68,11.68,0,0,1-1.09-5,13.61,13.61,0,0,1,1-5.23,13.38,13.38,0,0,1,2.78-4.24,12.87,12.87,0,0,1,4.24-2.87,13.17,13.17,0,0,1,5.18-1h19.41a3.11,3.11,0,0,1,2.21.85,2.86,2.86,0,0,1,.9,2.17,3.07,3.07,0,0,1-3.11,3.11H374.69a7.14,7.14,0,0,0-5.28,2.21,6.6,6.6,0,0,0-2,5.23,6.88,6.88,0,0,0,2.21,4.66,6.77,6.77,0,0,0,4.85,1.93h10.08a13.17,13.17,0,0,1,5.18,1,12.87,12.87,0,0,1,4.24,2.87,13.28,13.28,0,0,1,2.78,4.29,13.68,13.68,0,0,1,1,5.18,12.07,12.07,0,0,1-1.08,5.09,13.93,13.93,0,0,1-2.92,4.14,13.29,13.29,0,0,1-9.38,3.77h-20a3.07,3.07,0,0,1-3.11-3.11,2.86,2.86,0,0,1,.9-2.17,3.09,3.09,0,0,1,2.21-.84h20a7.12,7.12,0,0,0,5.28-2.22A6.74,6.74,0,0,0,391.65,185.13ZM310.59,166.2a23.14,23.14,0,0,1,5-7.4,24.08,24.08,0,0,1,7.44-5,23.59,23.59,0,0,1,17.8-.19,23.9,23.9,0,0,1,12.39,11.3,22.15,22.15,0,0,1,2.4,8.43v.1a4.28,4.28,0,0,1-1.32,3.58,4.55,4.55,0,0,1-3.58,1.6H320.71a3.07,3.07,0,0,1-2.26-.94,3.66,3.66,0,0,1-.85-2.36,3.08,3.08,0,0,1,1-2.12,3.24,3.24,0,0,1,2.22-.8h28.35a16.41,16.41,0,0,0-2.16-5.88,17.5,17.5,0,0,0-4-4.48,17.12,17.12,0,0,0-5.28-2.87,18.87,18.87,0,0,0-6.12-1,16.09,16.09,0,0,0-6.36,1.46,17.87,17.87,0,0,0-8.85,8.85,17.5,17.5,0,0,0-1.56,6.36,17.38,17.38,0,0,0,4.9,12.62,16.61,16.61,0,0,0,12.44,5.28,17.16,17.16,0,0,0,9.23-2.64,16.8,16.8,0,0,0,6.4-7.16,2.82,2.82,0,0,1,2.83-1.79,2.86,2.86,0,0,1,2.64,1.42,2.92,2.92,0,0,1,.19,3,22.79,22.79,0,0,1-8.72,9.84,23.22,23.22,0,0,1-12.57,3.63h-.29a22.73,22.73,0,0,1-9-2,24.65,24.65,0,0,1-7.44-5.19,23.93,23.93,0,0,1-5-7.53,21.55,21.55,0,0,1-1.74-9.09A23.51,23.51,0,0,1,310.59,166.2Zm-68.44-41.08a3.17,3.17,0,0,1,.9-2.26,2.94,2.94,0,0,1,2.21-.94,3.23,3.23,0,0,1,3.21,3.2V196a3,3,0,0,1-.95,2.22,3.19,3.19,0,0,1-2.26.89,3.06,3.06,0,0,1-3.11-3.11ZM125,326,99,272.45a.81.81,0,0,0-1.47.06L66,355a7.44,7.44,0,0,1-5.54,4.57,5.93,5.93,0,0,1-3.56-.43l-8.55-3.77a2.38,2.38,0,0,1,.25-4.76l9.54-1.15a2.15,2.15,0,0,0,2-1.33l37-94.18a.68.68,0,0,1,1.32,0l28,71.41C126.85,326.32,125.4,326.88,125,326Zm55.93,14.77a27.21,27.21,0,0,1-2.78,10,27.89,27.89,0,0,1-14.56,13.5,26.94,26.94,0,0,1-10.22,1.94,27.27,27.27,0,0,1-10.11-1.89,28.22,28.22,0,0,1-8.5-5.22,26.87,26.87,0,0,1-6-7.89,27.71,27.71,0,0,1-2.89-9.89,3.11,3.11,0,0,1,1-2.77,3.27,3.27,0,0,1,2.67-1.23,3.43,3.43,0,0,1,2.44,1,4,4,0,0,1,1.22,2.39,20.75,20.75,0,0,0,2.17,7.22,20.22,20.22,0,0,0,4.44,5.78,20.89,20.89,0,0,0,6.23,3.83,19.92,19.92,0,0,0,7.38,1.39,19.43,19.43,0,0,0,7.89-1.61,20.77,20.77,0,0,0,6.39-4.34,20.5,20.5,0,0,0,4.33-6.44,19.67,19.67,0,0,0,1.61-7.94V303.29a19.72,19.72,0,0,0-1.61-8,20.32,20.32,0,0,0-10.72-10.77,19.27,19.27,0,0,0-7.89-1.62A20.33,20.33,0,0,0,133,304.06a20.52,20.52,0,0,0,1.89,7.67,21.17,21.17,0,0,0,4.39,6.22,19.7,19.7,0,0,0,6.33,4.17,19.93,19.93,0,0,0,7.72,1.5,20.26,20.26,0,0,0,12.11-4,3.11,3.11,0,0,1,2.11-.78,3.39,3.39,0,0,1,2.78,1.22,3.28,3.28,0,0,1,.89,2.78,3.71,3.71,0,0,1-1.44,2.67,27.58,27.58,0,0,1-27.17,3.27,28.31,28.31,0,0,1-8.83-5.88,27.14,27.14,0,0,1-5.94-8.78,26.85,26.85,0,0,1-2.17-10.72,27.19,27.19,0,0,1,2.17-10.84,28.43,28.43,0,0,1,5.88-8.83,27.44,27.44,0,0,1,19.61-8.11,26.82,26.82,0,0,1,10.72,2.17,27.3,27.3,0,0,1,8.78,5.94,28.46,28.46,0,0,1,5.89,8.83,26.9,26.9,0,0,1,2.17,10.73Zm60.55-35.67a5.38,5.38,0,0,1-4.22,1.89H201.78a3.62,3.62,0,0,1-2.66-1.11,4.24,4.24,0,0,1-1-2.78,3.56,3.56,0,0,1,1.16-2.5,3.84,3.84,0,0,1,2.61-.94h33.45a19.29,19.29,0,0,0-2.56-6.94A20.43,20.43,0,0,0,221.89,284a22.25,22.25,0,0,0-7.22-1.17,19,19,0,0,0-7.5,1.73A21.06,21.06,0,0,0,196.73,295a19.44,19.44,0,0,0-.45,15.55,20.65,20.65,0,0,0,4.39,6.84,19.59,19.59,0,0,0,14.67,6.22,20.29,20.29,0,0,0,10.89-3.11,19.85,19.85,0,0,0,7.55-8.45,3.3,3.3,0,0,1,3.33-2.11,3.36,3.36,0,0,1,3.11,1.67,3.43,3.43,0,0,1,.23,3.55,26.9,26.9,0,0,1-10.28,11.61,27.37,27.37,0,0,1-14.83,4.28H215a26.61,26.61,0,0,1-10.66-2.39,29,29,0,0,1-8.78-6.11,28.29,28.29,0,0,1-5.94-8.89A25.56,25.56,0,0,1,187.56,303a27.93,27.93,0,0,1,2.28-10.66,27.37,27.37,0,0,1,5.94-8.72,28.41,28.41,0,0,1,8.78-5.89,27.81,27.81,0,0,1,21-.22,28.19,28.19,0,0,1,14.61,13.33,26,26,0,0,1,2.83,9.94v.11A5.06,5.06,0,0,1,241.45,305.06Zm-11.89-77.15-43-69.78-22.84,6.16L146.31,146l-19.93,5-9.46-8.78,9.62,5.21,20.06-13.14L162,147.43l12.56-8.75L150.08,98.89c-.61-1-3-1-3.7-.09L81,182.47c-1.07,1.44-4.71.56-3.78-.91L93,156.47a2.8,2.8,0,0,1-2.94-1.34L79.12,138a.93.93,0,0,0-1.61.08L49.87,192.56a2,2,0,0,1-3.57-1.67l31-72.83a1.07,1.07,0,0,1,2,0l6.08,13,16.71-39.23a.91.91,0,0,1,1.67,0l11.35,24.32a.94.94,0,0,1-1.59,1l-9.91-12.54a.55.55,0,0,0-.92.07L86.35,133.2l8.91,19.09a2.35,2.35,0,0,1,.15.42L147.8,69.89a2.38,2.38,0,0,1,3.34,0L244.3,217.16c.79,1.26,2.82,2.09,5.08,2.09h6.81V175.52a22.92,22.92,0,0,1,1.83-9.09A23.22,23.22,0,0,1,270.46,154a23.72,23.72,0,0,1,18.32,0,23.54,23.54,0,0,1,7.44,5,22.81,22.81,0,0,1,5,7.49,23.44,23.44,0,0,1,1.79,9.18,22.54,22.54,0,0,1-1.83,9,23.47,23.47,0,0,1-5,7.4,24.07,24.07,0,0,1-7.49,5,23.35,23.35,0,0,1-23-2.78,3.08,3.08,0,0,1-1.23-2.17,3.22,3.22,0,0,1,3.11-3.48,3.15,3.15,0,0,1,1.79.66,16.67,16.67,0,0,0,10.27,3.39,16.91,16.91,0,0,0,6.55-1.27,17.76,17.76,0,0,0,5.41-3.49,16.79,16.79,0,0,0,3.77-5.23,16.27,16.27,0,0,0,1.51-6.5,17.19,17.19,0,0,0-23.88-16.53,17.27,17.27,0,0,0-9.14,9.09,16.51,16.51,0,0,0-1.37,6.69v43.73H388.51c8,0,8.6,6.95.65,7.44L262.4,234.44v11.11a3,3,0,0,1-.89,2.22,3.2,3.2,0,0,1-4.43,0,3,3,0,0,1-.89-2.22V234.82l-6.84.42C240.7,235.77,232.54,232.75,229.56,227.91Zm75.33,99.49a3.58,3.58,0,0,1-1.06,2.61,3.67,3.67,0,0,1-6.28-2.61V304.06a18.74,18.74,0,0,0-1.28-7.94,20.58,20.58,0,0,0-4.38-6.83,19.55,19.55,0,0,0-6.67-4.56,20.66,20.66,0,0,0-7.89-1.55,19.84,19.84,0,0,0-7.94,1.61,20.29,20.29,0,0,0-10.78,10.72A19.43,19.43,0,0,0,257,303.4v24a3.67,3.67,0,1,1-7.33,0v-48a3.54,3.54,0,0,1,1.05-2.61,3.74,3.74,0,0,1,5.22,0A3.51,3.51,0,0,1,257,279.4v5.33a6.84,6.84,0,0,1,.78-.89,26.9,26.9,0,0,1,8.89-5.94,27.73,27.73,0,0,1,10.66-2.06,26.72,26.72,0,0,1,10.45,2.06,28,28,0,0,1,14.61,13.94,26.39,26.39,0,0,1,2.5,10.34ZM364,316.29a27.87,27.87,0,0,1-35.5,12.55,27.75,27.75,0,0,1-14.88-15,26.69,26.69,0,0,1-2.06-11,27.21,27.21,0,0,1,2.33-10.66,28,28,0,0,1,14.84-14.61,26.82,26.82,0,0,1,10.72-2.17,27.61,27.61,0,0,1,14.33,3.89A26.79,26.79,0,0,1,364,290.18a3.79,3.79,0,0,1-.11,3.66,3.57,3.57,0,0,1-3.22,1.78,3.53,3.53,0,0,1-3.23-2,20.64,20.64,0,0,0-18.22-10.89,20.82,20.82,0,0,0-7.72,1.67,22.18,22.18,0,0,0-6.39,4.17,19.22,19.22,0,0,0-4.38,6.16,21.37,21.37,0,0,0-.45,15.78,20.41,20.41,0,0,0,4.39,6.89,19.72,19.72,0,0,0,14.78,6.22,20.3,20.3,0,0,0,18-10.78,3.53,3.53,0,0,1,3.23-2,3.59,3.59,0,0,1,3.22,1.78A3.45,3.45,0,0,1,364,316.29Zm62.22,24.33a25.8,25.8,0,0,1-2.67,10,27.22,27.22,0,0,1-6.06,8.05,29,29,0,0,1-8.55,5.39,26.38,26.38,0,0,1-10.17,2A27.53,27.53,0,0,1,380.21,359a27.59,27.59,0,0,1-6-7.89,27.92,27.92,0,0,1-2.89-9.89,3.62,3.62,0,0,1,3.56-4,3.64,3.64,0,0,1,2.5.95,3.42,3.42,0,0,1,1.16,2.39,20.75,20.75,0,0,0,2.17,7.22,20.18,20.18,0,0,0,4.44,5.77,20.71,20.71,0,0,0,6.23,3.84,19.92,19.92,0,0,0,7.38,1.39,19.43,19.43,0,0,0,7.89-1.61,20.38,20.38,0,0,0,10.72-10.78,19.69,19.69,0,0,0,1.61-7.95V322a27.46,27.46,0,0,1-20.22,8.89A26.85,26.85,0,0,1,388,328.67a28.17,28.17,0,0,1-8.83-5.89,27.39,27.39,0,0,1-8.11-19.49v-24a3.67,3.67,0,1,1,7.33,0v24a19.56,19.56,0,0,0,1.61,7.83,20.31,20.31,0,0,0,10.78,10.78,19.84,19.84,0,0,0,7.94,1.61,19.43,19.43,0,0,0,7.89-1.61,20.38,20.38,0,0,0,10.72-10.78,19.39,19.39,0,0,0,1.61-7.83v-24a3.55,3.55,0,0,1,1.06-2.61,3.67,3.67,0,0,1,6.28,2.61v61.33Z" style="fill:var(--text)"/></g></g></svg>